<?xml version="1.0" standalone="no"?>
<!DOCTYPE svg PUBLIC "-//W3C//DTD SVG 20010904//EN"
 "http://www.w3.org/TR/2001/REC-SVG-20010904/DTD/svg10.dtd">
<svg version="1.0" xmlns="http://www.w3.org/2000/svg"
 width="911.000000pt" height="911.000000pt" viewBox="0 0 911.000000 911.000000"
 preserveAspectRatio="xMidYMid meet">
<metadata>
Created by potrace 1.14, written by Peter Selinger 2001-2017
</metadata>
<g transform="translate(0.000000,911.000000) scale(0.100000,-0.100000)"
fill="#000000" stroke="none">
<path d="M4450 8880 c0 -3 -11 -7 -25 -8 -46 -3 -55 -5 -55 -13 0 -4 -9 -6
-20 -4 -11 2 -20 0 -20 -4 0 -4 -7 -8 -15 -9 -8 -1 -22 -3 -30 -4 -8 -1 -15
-6 -15 -11 0 -6 -3 -8 -6 -4 -4 3 -18 0 -33 -7 -39 -21 -160 -49 -216 -51 -27
-1 -74 4 -102 10 -29 7 -50 8 -47 4 3 -5 1 -9 -5 -9 -5 0 -8 -9 -6 -21 2 -11
5 -41 6 -65 2 -25 6 -47 9 -49 10 -6 10 -78 0 -95 -8 -13 -13 -12 -37 6 -15
11 -36 37 -46 57 -16 31 -17 42 -7 73 19 57 0 69 -113 71 -87 1 -96 -1 -167
-35 -41 -20 -77 -38 -80 -41 -3 -3 -21 -14 -40 -23 -50 -25 -94 -52 -98 -60
-2 -5 -7 -8 -12 -8 -4 0 -43 -17 -87 -37 -78 -37 -89 -39 -265 -43 -7 0 -23
-41 -20 -52 1 -5 -2 -8 -7 -8 -4 0 -9 -37 -10 -82 -2 -89 -30 -167 -73 -205
-12 -10 -18 -13 -15 -7 4 7 0 17 -8 24 -8 7 -15 17 -15 21 0 5 -18 38 -40 73
-49 78 -59 119 -35 146 14 15 16 29 11 64 -4 25 -11 48 -17 51 -11 7 -259
-114 -259 -127 0 -5 -4 -7 -8 -4 -7 4 -139 -127 -167 -166 -11 -15 -17 -35
-18 -55 0 -7 -3 -13 -7 -13 -3 0 -7 -21 -9 -47 -1 -26 -4 -49 -6 -51 -2 -2 1
-16 6 -31 l9 -26 -24 29 c-27 32 -66 38 -91 12 -9 -9 -25 -16 -36 -16 -23 0
-24 -13 -3 -45 14 -21 14 -28 3 -42 -11 -13 -11 -15 -1 -9 11 7 11 4 1 -11
-13 -22 -12 -21 -87 -29 -44 -5 -55 -10 -66 -32 -7 -15 -12 -35 -11 -44 2 -10
0 -18 -3 -18 -4 0 -8 -10 -9 -23 -6 -65 -9 -67 -79 -52 -14 3 -24 -1 -28 -11
-3 -8 -2 -12 3 -9 5 3 12 -3 16 -14 3 -11 13 -22 21 -25 18 -7 9 -26 -12 -26
-8 0 -12 4 -9 10 3 6 -1 7 -10 4 -8 -4 -26 1 -39 10 -34 22 -71 27 -92 12 -21
-16 -10 -39 29 -65 l27 -18 -25 -13 c-14 -7 -25 -17 -25 -21 0 -5 -10 -18 -22
-30 -13 -12 -16 -18 -8 -14 8 5 4 -4 -9 -18 -26 -29 -37 -35 -25 -14 5 8 2 8
-9 -2 -11 -9 -17 -10 -17 -2 0 6 -6 10 -12 9 -7 -2 -12 2 -11 9 2 7 -4 10 -12
7 -8 -4 -15 -1 -15 5 0 6 5 11 11 11 6 0 9 6 7 13 -3 7 -23 13 -48 13 -37 1
-47 -3 -81 -37 -22 -22 -38 -42 -37 -47 0 -4 -1 -14 -4 -22 -3 -8 -13 -42 -23
-75 -9 -33 -30 -77 -47 -98 -36 -46 -34 -49 57 -98 33 -18 66 -40 73 -48 11
-13 12 -13 6 -1 -5 11 -4 12 4 5 16 -14 0 -69 -21 -73 -8 -2 -33 13 -55 32
-46 42 -54 43 -93 15 -16 -11 -29 -17 -29 -13 0 3 -8 0 -17 -7 -15 -12 -16
-12 -8 1 5 9 0 8 -13 -4 -12 -11 -22 -16 -22 -12 0 4 -7 1 -15 -6 -46 -38 -65
-61 -65 -77 0 -18 66 -91 82 -91 4 0 8 -5 8 -11 0 -6 -7 -8 -17 -5 -10 4 -14
4 -11 0 8 -8 -14 -34 -24 -27 -5 2 -8 0 -8 -6 0 -6 -10 -15 -22 -22 -18 -10
-20 -9 -15 6 5 12 2 16 -10 13 -12 -2 -17 -15 -19 -53 -1 -27 -4 -59 -7 -70
-9 -35 -40 -95 -49 -95 -5 0 -6 -4 -3 -10 3 -5 2 -10 -2 -10 -5 0 -21 -24 -36
-53 -20 -40 -27 -69 -27 -111 0 -55 19 -109 45 -128 6 -4 2 -8 -9 -8 -10 0
-38 20 -62 45 -23 25 -49 45 -57 45 -18 0 -75 -63 -88 -97 -5 -13 -9 -121 -9
-240 0 -244 -2 -254 -75 -321 -24 -22 -41 -43 -38 -46 4 -3 2 -6 -4 -6 -10 0
-45 -72 -68 -140 -1 -3 -5 -12 -8 -20 -4 -8 -8 -26 -10 -40 -2 -14 -7 -32 -10
-40 -3 -8 -8 -60 -11 -115 -11 -206 -25 -371 -34 -407 -5 -21 -7 -38 -4 -38 3
0 1 -5 -6 -12 -17 -17 -15 -57 3 -64 8 -4 13 -10 10 -14 -3 -5 0 -12 6 -16 7
-4 9 -3 5 4 -3 6 -2 14 4 17 7 4 8 -7 5 -32 -4 -21 -7 -45 -8 -53 -2 -8 -5
-19 -8 -25 -3 -5 -7 -33 -8 -61 -2 -49 0 -54 32 -78 22 -17 49 -55 71 -100 37
-75 46 -132 24 -155 -9 -9 -9 -12 -1 -7 6 3 13 0 16 -6 3 -9 11 -4 25 12 17
20 24 23 39 14 10 -6 17 -15 16 -20 -3 -11 -72 -26 -96 -20 -25 6 -21 -16 15
-87 32 -64 44 -132 26 -154 -6 -8 -22 -11 -40 -8 l-29 6 2 -76 c2 -41 8 -75
13 -75 5 0 7 -2 4 -5 -7 -8 27 -136 54 -205 33 -83 64 -129 130 -192 66 -63
70 -84 20 -116 -15 -9 -40 -29 -56 -43 -37 -35 -31 -64 29 -128 43 -46 153
-111 188 -111 22 0 21 -8 -3 -70 -11 -28 -18 -55 -16 -59 6 -9 64 -2 71 9 7
12 43 0 49 -15 3 -8 -3 -17 -15 -20 -10 -4 -19 -11 -19 -16 0 -5 -5 -9 -11 -9
-14 0 -38 -30 -39 -47 0 -7 15 -19 33 -28 39 -18 101 -74 140 -126 15 -20 51
-92 80 -160 57 -134 71 -147 120 -115 22 15 25 15 41 -3 9 -10 17 -27 17 -37
-1 -39 -5 -54 -13 -54 -4 0 -8 -8 -8 -17 0 -15 -2 -16 -10 -3 -8 13 -10 12
-10 -3 0 -10 -4 -16 -9 -13 -17 11 -21 -25 -7 -53 34 -64 131 -129 236 -156
34 -8 46 -17 48 -33 7 -47 128 -102 231 -103 58 -1 67 -4 102 -36 l38 -35 -6
-63 c-5 -60 -4 -65 22 -89 15 -14 51 -37 79 -50 61 -29 107 -72 99 -92 -3 -8
0 -14 6 -14 7 0 11 -21 11 -54 l0 -54 63 -31 c34 -17 82 -42 107 -56 38 -21
56 -25 112 -22 66 2 67 2 62 -20 -4 -14 1 -34 11 -49 19 -29 111 -74 152 -74
18 0 38 -14 67 -46 22 -25 49 -50 59 -55 16 -9 17 48 17 1146 l0 1155 -325 0
-325 0 0 125 0 125 325 0 325 0 0 340 0 340 -339 0 -338 0 -52 111 c-28 60
-51 114 -51 120 0 5 916 9 2410 9 1494 0 2410 -4 2410 -9 0 -6 -23 -60 -51
-120 l-52 -111 -338 0 -339 0 0 -340 0 -340 325 0 325 0 0 -125 0 -125 -325 0
-325 0 0 -1079 c0 -954 2 -1080 16 -1091 10 -9 18 -10 25 -3 11 11 15 85 5
101 -6 10 67 86 98 104 18 10 56 -19 56 -42 0 -10 5 -22 11 -26 20 -12 139
-11 149 1 5 6 16 43 24 81 11 51 21 75 41 92 l27 23 34 -21 c19 -12 51 -21 75
-22 39 0 46 5 134 92 86 86 93 91 109 75 16 -16 18 -16 36 0 11 10 20 24 20
31 0 8 29 44 64 81 34 38 68 78 75 90 30 58 113 90 183 69 25 -7 28 -4 62 68
30 62 36 87 36 140 l0 65 98 3 c108 3 107 2 87 84 -7 33 10 55 93 122 50 40
53 64 11 112 -33 39 -27 46 27 31 20 -6 57 -7 81 -4 l45 6 -6 36 c-3 20 -8 52
-12 72 -3 23 -2 39 5 43 6 4 11 16 11 27 0 39 109 179 139 179 4 0 15 17 24
38 14 31 17 71 17 205 0 104 4 167 10 168 28 4 39 2 90 -14 30 -10 69 -19 85
-20 48 -3 46 38 -4 112 -56 81 -54 110 7 102 6 -1 12 6 12 16 0 19 67 107 103
135 37 28 33 51 -24 172 -11 22 -19 52 -19 67 0 15 -4 31 -10 34 -5 3 -10 15
-10 26 0 11 -18 44 -40 72 l-39 52 29 3 c43 5 69 -14 90 -63 21 -49 46 -61
107 -52 38 7 55 23 78 76 17 39 21 236 5 246 -5 3 -10 16 -10 28 0 12 -14 60
-30 106 -17 46 -30 88 -30 93 0 6 16 7 40 3 26 -4 40 -3 40 4 0 6 -9 11 -21
11 -11 0 -18 4 -15 8 3 5 -10 23 -29 40 -35 30 -44 55 -25 67 15 9 13 92 -2
92 -63 3 -223 15 -226 17 -1 2 11 17 27 35 34 36 73 41 98 11 29 -33 93 -5 93
41 0 10 -12 32 -26 49 -15 17 -24 34 -20 37 11 12 -17 33 -44 33 -87 0 -123
33 -48 43 32 4 49 14 70 39 15 18 28 41 28 51 0 28 -76 152 -105 171 -21 14
-24 20 -14 32 6 8 17 14 25 14 22 0 26 20 10 45 -9 14 -16 45 -16 73 0 67 -20
129 -64 194 l-36 55 0 131 c0 192 -10 211 -170 312 -96 61 -182 99 -222 100
-24 0 -28 4 -28 30 0 17 6 31 13 31 45 5 175 -15 230 -36 26 -11 22 31 -5 49
-21 13 -63 26 -95 28 -19 2 -16 12 12 38 38 36 32 56 -20 69 -39 10 -44 14
-36 30 6 9 17 23 25 31 30 24 18 49 -34 78 -41 22 -49 31 -44 47 4 11 9 41 11
68 3 29 12 52 22 60 32 23 31 35 -10 96 -46 69 -60 79 -119 85 -23 2 -44 7
-47 10 -14 14 18 29 56 28 22 -1 43 3 46 8 3 5 -106 121 -243 257 -137 137
-298 302 -358 368 -60 66 -149 162 -199 213 -97 101 -95 100 -183 73 -18 -5
-30 -6 -27 -1 3 5 1 11 -4 14 -5 3 -15 30 -21 58 -34 145 -151 260 -249 245
-17 -3 -33 -1 -37 4 -3 5 -13 9 -23 9 -22 0 -67 33 -150 112 -161 153 -284
238 -343 238 -36 0 -68 -11 -62 -21 3 -5 -1 -9 -8 -10 -7 0 -23 -2 -36 -5 -27
-5 -66 14 -129 62 -36 28 -53 34 -92 34 -34 0 -53 -5 -64 -18 -19 -21 -22 -42
-7 -42 6 0 10 -9 10 -20 0 -11 -5 -20 -11 -20 -6 0 -9 -6 -7 -12 5 -13 -2 -23
-38 -61 -55 -57 -137 -113 -152 -103 -10 6 -7 61 7 113 5 21 9 47 9 58 -3 84
3 125 18 125 8 0 12 -4 9 -10 -9 -15 21 -12 33 3 6 7 13 34 16 60 5 41 3 47
-12 45 -9 -2 -27 -14 -39 -27 -13 -13 -23 -21 -23 -17 0 3 -9 -3 -20 -14 -12
-12 -25 -18 -30 -15 -4 3 -10 0 -12 -6 -2 -6 -24 -13 -50 -16 -55 -6 -132 27
-200 86 -84 74 -118 91 -177 91 -46 0 -57 -4 -78 -27 -20 -23 -24 -24 -19 -8
3 11 2 26 -3 33 -10 16 -81 24 -81 9 0 -6 -3 -8 -6 -4 -8 8 -72 -57 -108 -110
-16 -24 -32 -40 -37 -37 -5 3 -9 -2 -9 -10 0 -8 -5 -18 -10 -21 -22 -13 1 80
30 125 32 50 38 79 18 82 -38 4 -138 3 -138 -2z m2020 -655 c0 -2 -10 -9 -22
-15 -22 -11 -22 -10 -4 4 21 17 26 19 26 11z m-4827 -3020 c354 -103 879 -195
1417 -249 1526 -154 3301 -54 4363 245 60 17 111 29 113 26 2 -2 -82 -140
-188 -305 l-193 -302 -2615 0 -2615 0 -180 282 c-197 308 -209 328 -197 328 4
0 47 -11 95 -25z"/>
<path d="M5520 8586 c0 -9 7 -16 16 -16 9 0 14 5 12 12 -6 18 -28 21 -28 4z"/>
<path d="M3270 3990 l0 -340 505 0 505 0 0 340 0 340 -505 0 -505 0 0 -340z"/>
<path d="M4800 3990 l0 -340 505 0 505 0 0 340 0 340 -505 0 -505 0 0 -340z"/>
<path d="M3270 2231 c0 -926 -3 -1170 -12 -1174 -7 -3 25 -3 72 0 47 2 95 9
108 15 39 20 45 -2 17 -56 -14 -26 -25 -53 -25 -61 0 -26 38 -35 151 -35 65 0
127 -5 147 -12 27 -10 36 -10 39 -1 3 8 54 12 170 13 l166 1 38 -31 c21 -16
47 -30 59 -30 11 0 28 -4 38 -10 58 -33 158 -70 189 -70 l36 0 -7 43 c-4 23
-10 63 -13 88 l-5 47 126 1 c93 1 126 -1 126 -10 0 -7 7 -20 16 -30 15 -16 19
-16 69 12 35 19 66 29 88 27 42 -2 57 7 57 38 0 19 5 24 25 24 14 0 25 -1 25
-2 1 -2 3 -21 6 -43 6 -43 41 -82 59 -64 5 5 20 9 33 9 13 0 38 11 54 25 l30
25 20 -26 c12 -14 21 -39 20 -55 -1 -25 4 -30 38 -40 l39 -12 67 63 67 62 58
-5 c66 -6 79 3 79 50 0 32 1 33 44 33 25 0 48 5 51 10 3 6 14 10 24 10 9 0 35
18 56 40 27 27 48 40 66 40 15 0 29 -3 32 -7 2 -5 2 -2 0 5 -1 8 -3 520 -3
1138 l0 1124 -1270 0 -1270 0 0 -1169z"/>
</g>
</svg>
